<svg id="Layer_1" data-name="Layer 1" xmlns="http://www.w3.org/2000/svg" xmlns:xlink="http://www.w3.org/1999/xlink" viewBox="0 0 753.66 321.49"><defs><style>.cls-1{fill:#fefefe;}.cls-2{fill:#14b64c;}.cls-3{fill:#2026e1;}.cls-4{fill:#bebfc0;}.cls-5{fill:silver;}.cls-6{fill:#95979a;}.cls-7{fill:#959699;}.cls-8{fill:#fefdfd;}.cls-9{fill:#fdfdfd;}.cls-10{fill:url(#linear-gradient);}.cls-11{fill:url(#linear-gradient-3);}.cls-12{fill:url(#linear-gradient-4);}.cls-13{fill:url(#linear-gradient-5);}.cls-14{fill:url(#linear-gradient-6);}.cls-15{fill:url(#linear-gradient-7);}.cls-16{fill:url(#linear-gradient-8);}.cls-17{fill:url(#linear-gradient-9);}.cls-18{fill:url(#linear-gradient-10);}.cls-19{fill:url(#linear-gradient-11);}.cls-20{fill:url(#linear-gradient-12);}</style><linearGradient id="linear-gradient" x1="156.82" y1="488.23" x2="320.7" y2="652.1" gradientUnits="userSpaceOnUse"><stop offset="0" stop-color="#14b64c"/><stop offset="0" stop-color="#15ae54"/><stop offset="1" stop-color="#2026e1"/></linearGradient><linearGradient id="linear-gradient-3" x1="673.59" y1="26.6" x2="715.44" y2="68.45" xlink:href="#linear-gradient"/><linearGradient id="linear-gradient-4" x1="661.43" y1="83.49" x2="679.18" y2="101.24" xlink:href="#linear-gradient"/><linearGradient id="linear-gradient-5" x1="682.72" y1="131.08" x2="700.47" y2="148.83" xlink:href="#linear-gradient"/><linearGradient id="linear-gradient-6" x1="808.41" y1="440.73" x2="881.69" y2="514.01" xlink:href="#linear-gradient"/><linearGradient id="linear-gradient-7" x1="600.06" y1="85.79" x2="641.91" y2="127.63" xlink:href="#linear-gradient"/><linearGradient id="linear-gradient-8" x1="629.19" y1="22.55" x2="655.82" y2="49.18" xlink:href="#linear-gradient"/><linearGradient id="linear-gradient-9" x1="632.78" y1="157.06" x2="659.41" y2="183.69" xlink:href="#linear-gradient"/><linearGradient id="linear-gradient-10" x1="584.83" y1="37.38" x2="605.13" y2="57.67" xlink:href="#linear-gradient"/><linearGradient id="linear-gradient-11" x1="603.62" y1="8.64" x2="615.03" y2="20.05" xlink:href="#linear-gradient"/><linearGradient id="linear-gradient-12" x1="656.9" y1="1.84" x2="665.78" y2="10.72" xlink:href="#linear-gradient"/></defs><title>Itriger Innovations</title><g id="S_3" data-name="S@3"><path d="M276,489.57h11.89v59.06H276Z" transform="translate(-135.4 -352.01)"/><path d="M298.55,504.81h9.82c0,1.92,0,3.75-.08,5.83,1.91-3.43,5.83-7.26,13.65-7.18,14.28.08,17,11,17,18.75v26.42H328.48V524.85c0-6.55-2.15-11.58-9.5-11.58s-10,5-10,11.18v24.18H298.55Z" transform="translate(-135.4 -352.01)"/><path d="M349.15,504.81H359c0,1.92,0,3.75-.08,5.83,1.91-3.43,5.82-7.26,13.64-7.18,14.29.08,17,11,17,18.75v26.42H379.08V524.85c0-6.55-2.16-11.58-9.5-11.58s-10,5-10,11.18v24.18H349.15Z" transform="translate(-135.4 -352.01)"/><path d="M397.43,526.6c0-11.17,8.22-23.06,23.47-23.06s23.46,11.89,23.46,23.14-8.22,23.23-23.46,23.23-23.47-11.9-23.47-23.23Zm10.46.16a13,13,0,0,0,13,13.33c7.18,0,12.93-5.67,12.93-13.41s-5.75-13.41-12.93-13.41a13,13,0,0,0-13,13.41Z" transform="translate(-135.4 -352.01)"/><path d="M472.37,548.63H462.16l-16.28-43.82h10.85l10.54,30.65,10.53-30.65h10.85Z" transform="translate(-135.4 -352.01)"/><path d="M537.66,548.63H527.2v-6.31c-2.79,5.11-8.62,7.67-14.76,7.67-14.05,0-22.27-10.94-22.27-23.31,0-13.81,10-23.22,22.27-23.22,8,0,12.85,4.23,14.76,7.74v-6.39h10.46Zm-37-21.71c0,5.43,3.91,13.33,13.32,13.33a12.42,12.42,0,0,0,11.66-7,15.17,15.17,0,0,0,1.67-6.15,13.69,13.69,0,0,0-1.19-6.14,12.88,12.88,0,0,0-12.22-7.75c-8.46,0-13.24,6.87-13.24,13.65Z" transform="translate(-135.4 -352.01)"/><path d="M550.9,512.87h-7.26v-8.06h7.26V489.57h10.46v15.24h7.5v8.06h-7.5v35.76H550.9Z" transform="translate(-135.4 -352.01)"/><path d="M574.93,489.57h10.45v9.34H574.93Zm0,15.24h10.45v43.82H574.93Z" transform="translate(-135.4 -352.01)"/><path d="M593.36,526.6c0-11.17,8.22-23.06,23.47-23.06s23.46,11.89,23.46,23.14-8.22,23.23-23.46,23.23-23.47-11.9-23.47-23.23Zm10.46.16a13,13,0,0,0,13,13.33c7.18,0,12.93-5.67,12.93-13.41s-5.75-13.41-12.93-13.41a13,13,0,0,0-13,13.41Z" transform="translate(-135.4 -352.01)"/><path d="M648.35,504.81h9.82c0,1.92,0,3.75-.08,5.83,1.91-3.43,5.82-7.26,13.64-7.18,14.29.08,17,11,17,18.75v26.42H678.28V524.85c0-6.55-2.16-11.58-9.5-11.58s-10,5-10,11.18v24.18H648.35Z" transform="translate(-135.4 -352.01)"/><path d="M717.94,516.62c-.08-2.31-1.28-4.7-5.35-4.7-3.51,0-5.18,2.23-5.18,4.39.08,2.79,3.27,4.3,7.42,5.5,7,1.92,14.6,4,14.68,13.41.16,9-7.42,14.77-16.6,14.77-6.78,0-16-3.52-16.76-14.13h10.46c.4,4.71,4.47,5.67,6.46,5.67,3.28,0,6.07-2.16,6-5.11,0-3.75-3.27-4.79-11.34-7.58C701.82,527,697,523.73,697,517.42c0-8.62,7.26-14,15.72-14,5.91,0,14.69,2.63,15.57,13.16Z" transform="translate(-135.4 -352.01)"/><path class="cls-1" d="M441.63,634.13a9,9,0,1,1,.08-18c4.33-.46,9.06,3.39,9.06,9.24A8.89,8.89,0,0,1,441.63,634.13Z" transform="translate(-135.4 -352.01)"/><path class="cls-1" d="M476.72,619.12c-.93-6.34,2.54-12.21,8.28-14a12.58,12.58,0,0,1,15,6.26,29.72,29.72,0,0,1,1.16,3.41c1.09.89.21,2.36,1.21,3.66,3.45-3.41,7.12-6.57,10.23-10.21,3.89-4.55,8.61-5.6,14.12-4.46a25.32,25.32,0,0,0,5.21.29l64.46.13a23.19,23.19,0,0,1,4,.27,1.47,1.47,0,0,1,1.17,1.82,1.39,1.39,0,0,1-1.49,1.08c-.81,0-1.62,0-2.42,0q-32.43-.06-64.87-.14c-3.61,0-7.18-.75-10.82-.66a6.8,6.8,0,0,0-5,2.07c-5.18,5.07-10.1,10.41-15.69,15.05-.83.69-1.53,1.53-2.77,1.36-2.85,2.6-6,4.38-10.07,4.22A12.31,12.31,0,0,1,476.72,619.12Z" transform="translate(-135.4 -352.01)"/><path class="cls-1" d="M390.37,602.5c14,.1,27.94.28,41.91-.16,8.58-.27,17.15-.47,25.73-.53a5.43,5.43,0,0,0,3.63-1.4c6-5,12-9.87,18-14.82.94-.77,1.77-1.64,3.13-1.57,4,.2,8-.17,12.06.43,4.76.72,9.56.26,14.74-.31-1.78-1.72-3.53-3.48-5.35-5.16-1.27-1.18-2.68-2.22-3.94-3.42a5.09,5.09,0,0,0-3.24-1.33,184.87,184.87,0,0,0-19.69-.64c-1.29,0-2.71-.46-3.82.67h0a13.93,13.93,0,0,1,1.09,4.26A9.53,9.53,0,0,1,465.3,589,9.7,9.7,0,0,1,455,579a9.85,9.85,0,0,1,10.29-9.6c1.54,0,2.86.69,4.29,1,9.68-.46,19.31.7,29,.68a4.87,4.87,0,0,1,3.52,1.61c7.28,6.76,14.66,13.39,21.84,20.25a9.14,9.14,0,0,0,6.43,2.51c14.21.82,28.45.39,42.66.9,6,.21,12,.46,18.08.58h.4c1.22.05,2.73,0,2.62,1.69s-1.63,1.55-2.83,1.5c-4.68-.22-9.36.17-14.06-.51-3.56-.52-7.24-.2-10.86-.22-3.9,0-7.8-.15-11.69,0-9,.27-17.95-1.06-26.94-.78a5.33,5.33,0,0,1-3.65-1.34,107,107,0,0,1-8-7.35,5,5,0,0,0-3.85-1.79c-8.73.41-17.41-.76-26.13-.88a9.19,9.19,0,0,0-6.52,2.48c-5.61,4.77-11.41,9.32-17.07,14a5.28,5.28,0,0,1-3.66,1.29c-3.5,0-7,0-10.48,0-19.2.11-38.38,1.1-57.58.71a5.79,5.79,0,0,0-5.12,2.43c-4,4.89-8.15,9.6-12.27,14.37a23.48,23.48,0,0,1-2,2,1.25,1.25,0,0,1-1.8,0,1.3,1.3,0,0,1-.33-1.79,18.48,18.48,0,0,1,1.64-2.3c4.39-5.06,8.86-10.06,13.21-15.16A7.44,7.44,0,0,1,390.37,602.5Z" transform="translate(-135.4 -352.01)"/><path class="cls-1" d="M269.72,469.84a4.66,4.66,0,0,1,.55-9.25c1.2-.12,2.42,0,3.63,0h92.67c30.89,0,61.78,0,92.67.07a8.72,8.72,0,0,0,7-2.94c15.53-16.18,31.22-32.21,46.77-48.36a8.62,8.62,0,0,1,6.77-2.77q40.68.1,81.38,0a17.65,17.65,0,0,1,2.82.1,4.8,4.8,0,0,1,4.12,4.73,4.72,4.72,0,0,1-3.82,4.58,21.4,21.4,0,0,1-4,.17c-25.52,0-51,0-76.55-.05a8.36,8.36,0,0,0-6.65,2.79c-15.29,15.87-30.71,31.59-46,47.47a11.25,11.25,0,0,1-8.82,3.78Q368,470,273.73,470.08A20.59,20.59,0,0,1,269.72,469.84Z" transform="translate(-135.4 -352.01)"/><path class="cls-1" d="M608,419.64c5.07-4.41,9.61-9.35,14.52-13.91,1-1,1.79-2.48,3.62-2.14,2.71-2.48,5.63-4.37,9.54-4.4,6.93,0,12.42,4.93,12.76,11.73a12.31,12.31,0,0,1-10.74,12.84c-7.13.79-13.09-3.73-14-10.69a30.89,30.89,0,0,1-.15-3.2c-5.17,3.47-9.22,8.17-13.57,12.53a8.21,8.21,0,0,1-6.72,2.75c-25.33-1.3-50.69-.47-76-.78-1.47,0-3.86.67-3.93-1.55s2.35-1.61,3.78-1.61q32,0,64,.1c3.6,0,7.18.69,10.82.66A8.67,8.67,0,0,0,608,419.64Z" transform="translate(-135.4 -352.01)"/><path class="cls-1" d="M674.25,403.5a9.16,9.16,0,0,1,18.32.15c-.16,5.22-4.31,9.13-9.05,8.83A8.85,8.85,0,0,1,674.25,403.5Z" transform="translate(-135.4 -352.01)"/><path class="cls-1" d="M644.45,439.56c5.59-4.8,11.42-9.32,17-14.09a7.12,7.12,0,0,1,5-1.92c7,.08,14,.2,21-.07,15.56-.62,31.12-.7,46.69-.64a5.74,5.74,0,0,0,4.84-2.26c4-4.82,8.14-9.61,12.23-14.39.52-.62,1.08-1.2,1.64-1.78s1.3-1.06,2.1-.44a1.66,1.66,0,0,1,.34,2.5c-1.58,2-3.25,3.92-4.9,5.86-3,3.57-6.17,7.06-9.12,10.71a7.53,7.53,0,0,1-6.54,3c-10.07-.15-20.16-.32-30.21.09-12.34.49-24.68.57-37,.56-2.27,0-3.82,1.1-5.36,2.35-5,4.05-10,8.12-14.86,12.3a12.06,12.06,0,0,1-8.67,3.27c-6.44-.18-12.82-1.29-19.27-.9-1.31.08-2.64-.3-4.31.42,3.51,3.29,6.87,6.45,10.26,9.58.63.58,1.5.47,2.3.57,8,.91,16.07.62,24.11.68-.36-1-.79-2-1.1-3a9.83,9.83,0,0,1,18.1-7.39,9.88,9.88,0,0,1-3.2,12.8c-3.32,2.22-6.8,2-10.35.63-7.77.14-15.55.62-23.3-.46a1.79,1.79,0,0,0-.4,0c-6,1.36-9.67-2.61-13.5-6.12-5.93-5.45-11.9-10.83-17.77-16.34a7.39,7.39,0,0,0-5.05-1.94c-14.61-.86-29.24-.42-43.85-.9-5.89-.19-11.78-.48-17.67-.59a12.34,12.34,0,0,1-1.61-.13,1.23,1.23,0,0,1-1.07-1,1.47,1.47,0,0,1,.88-1.65,7.13,7.13,0,0,1,2.35-.36,74.56,74.56,0,0,1,8.46.07c11.65,1.23,23.34.29,35,.77,6.69.28,13.37.85,20.08.67a4.76,4.76,0,0,1,3.54,1.57c2.35,2.2,4.91,4.19,7.13,6.5a7.2,7.2,0,0,0,6,2.45c8.19-.44,16.32.91,24.51.83A7.78,7.78,0,0,0,644.45,439.56Z" transform="translate(-135.4 -352.01)"/><path class="cls-1" d="M736,580.24c-21.22,0-42.45,0-63.67,0a10.81,10.81,0,0,0-7,2.37c-17.21,13.08-34.52,26.05-51.73,39.14a12,12,0,0,1-7.74,2.64c-28.21-.1-56.42-.06-84.63-.06a26.72,26.72,0,0,1-3.23,0,4.66,4.66,0,0,1-4.39-4.86,4.6,4.6,0,0,1,4.56-4.66c1.06-.1,2.15,0,3.22,0,27,0,54,0,81,.06a12.27,12.27,0,0,0,8.08-2.67c16.76-12.79,33.65-25.41,50.43-38.19a13.74,13.74,0,0,1,8.82-3q64.49.15,129,.07a25.61,25.61,0,0,1,4,.15,4.39,4.39,0,0,1,3.83,4.87,4.33,4.33,0,0,1-4.05,4.24,31.16,31.16,0,0,1-3.62.07Z" transform="translate(-135.4 -352.01)"/><path class="cls-2" d="M608.1,411.41a4.72,4.72,0,0,1-3.82,4.58,21.4,21.4,0,0,1-4,.17c-25.52,0-51,0-76.55-.05a8.36,8.36,0,0,0-6.65,2.79c-15.29,15.87-30.71,31.59-46,47.47a11.25,11.25,0,0,1-8.82,3.78Q368,470,273.73,470.08a20.59,20.59,0,0,1-4-.24,4.66,4.66,0,0,1,.55-9.25c1.2-.12,2.42,0,3.63,0h92.67c30.89,0,61.78,0,92.67.07a8.72,8.72,0,0,0,7-2.94c15.53-16.18,31.22-32.21,46.77-48.36a8.62,8.62,0,0,1,6.77-2.77q40.68.1,81.38,0a17.65,17.65,0,0,1,2.82.1A4.8,4.8,0,0,1,608.1,411.41Z" transform="translate(-135.4 -352.01)"/><path class="cls-3" d="M806.59,575.93a4.33,4.33,0,0,1-4.05,4.24,31.16,31.16,0,0,1-3.62.07H736c-21.22,0-42.45,0-63.67,0a10.81,10.81,0,0,0-7,2.37c-17.21,13.08-34.52,26.05-51.73,39.14a12,12,0,0,1-7.74,2.64c-28.21-.1-56.42-.06-84.63-.06a26.72,26.72,0,0,1-3.23,0,4.66,4.66,0,0,1-4.39-4.86,4.6,4.6,0,0,1,4.56-4.66c1.06-.1,2.15,0,3.22,0,27,0,54,0,81,.06a12.27,12.27,0,0,0,8.08-2.67c16.76-12.79,33.65-25.41,50.43-38.19a13.74,13.74,0,0,1,8.82-3q64.49.15,129,.07a25.61,25.61,0,0,1,4,.15A4.39,4.39,0,0,1,806.59,575.93Z" transform="translate(-135.4 -352.01)"/><path class="cls-4" d="M755.31,406.47c-1.58,2-3.25,3.92-4.9,5.86-3,3.57-6.17,7.06-9.12,10.71a7.53,7.53,0,0,1-6.54,3c-10.07-.15-20.16-.32-30.21.09-12.34.49-24.68.57-37,.56-2.27,0-3.82,1.1-5.36,2.35-5,4.05-10,8.12-14.86,12.3a12.06,12.06,0,0,1-8.67,3.27c-6.44-.18-12.82-1.29-19.27-.9-1.31.08-2.64-.3-4.31.42,3.51,3.29,6.87,6.45,10.26,9.58.63.58,1.5.47,2.3.57,8,.91,16.07.62,24.11.68,2.23-.21,3.08,1.14,3.45,3-7.77.14-15.55.62-23.3-.46a1.79,1.79,0,0,0-.4,0c-6,1.36-9.67-2.61-13.5-6.12-5.93-5.45-11.9-10.83-17.77-16.34a7.39,7.39,0,0,0-5.05-1.94c-14.61-.86-29.24-.42-43.85-.9-5.89-.19-11.78-.48-17.67-.59a12.34,12.34,0,0,1-1.61-.13,1.23,1.23,0,0,1-1.07-1,1.47,1.47,0,0,1,.88-1.65,7.13,7.13,0,0,1,2.35-.36,74.56,74.56,0,0,1,8.46.07c11.65,1.23,23.34.29,35,.77,6.69.28,13.37.85,20.08.67a4.76,4.76,0,0,1,3.54,1.57c2.35,2.2,4.91,4.19,7.13,6.5a7.2,7.2,0,0,0,6,2.45c8.19-.44,16.32.91,24.51.83a7.78,7.78,0,0,0,5.51-1.8c5.59-4.8,11.42-9.32,17-14.09a7.12,7.12,0,0,1,5-1.92c7,.08,14,.2,21-.07,15.56-.62,31.12-.7,46.69-.64a5.74,5.74,0,0,0,4.84-2.26c4-4.82,8.14-9.61,12.23-14.39.52-.62,1.08-1.2,1.64-1.78s1.3-1.06,2.1-.44A1.66,1.66,0,0,1,755.31,406.47Z" transform="translate(-135.4 -352.01)"/><path class="cls-4" d="M594.1,598.6c-.11,1.59-1.63,1.55-2.83,1.5-4.68-.22-9.36.17-14.06-.51-3.56-.52-7.24-.2-10.86-.22-3.9,0-7.8-.15-11.69,0-9,.27-17.95-1.06-26.94-.78a5.33,5.33,0,0,1-3.65-1.34,107,107,0,0,1-8-7.35,5,5,0,0,0-3.85-1.79c-8.73.41-17.41-.76-26.13-.88a9.19,9.19,0,0,0-6.52,2.48c-5.61,4.77-11.41,9.32-17.07,14a5.28,5.28,0,0,1-3.66,1.29c-3.5,0-7,0-10.48,0-19.2.11-38.38,1.1-57.58.71a5.79,5.79,0,0,0-5.12,2.43c-4,4.89-8.15,9.6-12.27,14.37a23.48,23.48,0,0,1-2,2,1.25,1.25,0,0,1-1.8,0,1.3,1.3,0,0,1-.33-1.79,18.48,18.48,0,0,1,1.64-2.3c4.39-5.06,8.86-10.06,13.21-15.16a7.44,7.44,0,0,1,6.27-2.77c14,.1,27.94.28,41.91-.16,8.58-.27,17.15-.47,25.73-.53a5.43,5.43,0,0,0,3.63-1.4c6-5,12-9.87,18-14.82.94-.77,1.77-1.64,3.13-1.57,4,.2,8-.17,12.06.43,4.76.72,9.56.26,14.74-.31-1.78-1.72-3.53-3.48-5.35-5.16-1.27-1.18-2.68-2.22-3.94-3.42a5.09,5.09,0,0,0-3.24-1.33,184.87,184.87,0,0,0-19.69-.64c-1.29,0-2.71-.46-3.82.67h0a4.75,4.75,0,0,1-3.93-3.9c9.68-.46,19.31.7,29,.68a4.87,4.87,0,0,1,3.52,1.61c7.28,6.76,14.66,13.39,21.84,20.25a9.14,9.14,0,0,0,6.43,2.51c14.21.82,28.45.39,42.66.9,6,.21,12,.46,18.08.58h.4C592.7,597,594.21,596.91,594.1,598.6Z" transform="translate(-135.4 -352.01)"/><path class="cls-2" d="M637.68,423.76c-7.13.79-13.09-3.73-14-10.69a30.89,30.89,0,0,1-.15-3.2c-1-2.85.71-4.61,2.61-6.28,2.71-2.48,5.63-4.37,9.54-4.4,6.93,0,12.42,4.93,12.76,11.73A12.31,12.31,0,0,1,637.68,423.76Z" transform="translate(-135.4 -352.01)"/><path class="cls-3" d="M498.56,625.09c-2.85,2.6-6,4.38-10.07,4.22a12.31,12.31,0,0,1-11.77-10.19c-.93-6.34,2.54-12.21,8.28-14a12.58,12.58,0,0,1,15,6.26,29.72,29.72,0,0,1,1.16,3.41h0C501.57,618.55,502.75,622.5,498.56,625.09Z" transform="translate(-135.4 -352.01)"/><path class="cls-4" d="M601.59,606.29a1.39,1.39,0,0,1-1.49,1.08c-.81,0-1.62,0-2.42,0q-32.43-.06-64.87-.14c-3.61,0-7.18-.75-10.82-.66a6.8,6.8,0,0,0-5,2.07c-5.18,5.07-10.1,10.41-15.69,15.05-.83.69-1.53,1.53-2.77,1.36,2.27-3.08,2.69-6.62,2.63-10.29h0c1.09.89.21,2.36,1.21,3.66,3.45-3.41,7.12-6.57,10.23-10.21,3.89-4.55,8.61-5.6,14.12-4.46a25.32,25.32,0,0,0,5.21.29l64.46.13a23.19,23.19,0,0,1,4,.27A1.47,1.47,0,0,1,601.59,606.29Z" transform="translate(-135.4 -352.01)"/><path class="cls-5" d="M626.12,403.59a35.87,35.87,0,0,0-2.61,6.28c-5.17,3.47-9.22,8.17-13.57,12.53a8.21,8.21,0,0,1-6.72,2.75c-25.33-1.3-50.69-.47-76-.78-1.47,0-3.86.67-3.93-1.55s2.35-1.61,3.78-1.61q32,0,64,.1c3.6,0,7.18.69,10.82.66a8.67,8.67,0,0,0,6.1-2.33c5.07-4.41,9.61-9.35,14.52-13.91C623.53,404.76,624.29,403.25,626.12,403.59Z" transform="translate(-135.4 -352.01)"/><path class="cls-3" d="M465.3,589A9.7,9.7,0,0,1,455,579a9.85,9.85,0,0,1,10.29-9.6c1.54,0,2.86.69,4.29,1a19.12,19.12,0,0,1,3.94,3.89h0a13.93,13.93,0,0,1,1.09,4.26A9.53,9.53,0,0,1,465.3,589Z" transform="translate(-135.4 -352.01)"/><path class="cls-2" d="M665.52,457.42c-3.32,2.22-6.8,2-10.35.63l-3.45-3c-.36-1-.79-2-1.1-3a9.83,9.83,0,0,1,18.1-7.39A9.88,9.88,0,0,1,665.52,457.42Z" transform="translate(-135.4 -352.01)"/><path class="cls-6" d="M450.77,625.36a9.17,9.17,0,1,1-9.06-9.24C446,615.66,450.77,619.51,450.77,625.36Z" transform="translate(-135.4 -352.01)"/><path class="cls-7" d="M692.57,403.65c-.16,5.22-4.31,9.13-9.05,8.83a9,9,0,1,1,9.05-8.83Z" transform="translate(-135.4 -352.01)"/><path class="cls-8" d="M464.56,572.68a6.45,6.45,0,0,1,6.86,6.28,6.34,6.34,0,0,1-6.29,6.79,6.54,6.54,0,1,1-.57-13.07Z" transform="translate(-135.4 -352.01)"/><path class="cls-8" d="M660.19,455.85a6.68,6.68,0,0,1-6.77-6.89,6.55,6.55,0,0,1,6.9-6.27,6.67,6.67,0,0,1,6.41,6.83A6.79,6.79,0,0,1,660.19,455.85Z" transform="translate(-135.4 -352.01)"/><path class="cls-9" d="M441.42,630.91a5.59,5.59,0,0,1-5.77-5.83,5.66,5.66,0,0,1,6.26-5.75,5.8,5.8,0,1,1-.49,11.58Z" transform="translate(-135.4 -352.01)"/><path class="cls-9" d="M683.38,397.65a5.81,5.81,0,1,1,.19,11.62,5.81,5.81,0,1,1-.19-11.62Z" transform="translate(-135.4 -352.01)"/><path d="M265.64,390.78h9.75v48.43h-9.75Z" transform="translate(-135.4 -352.01)"/><path d="M287.83,409.89h-6v-6.61h6v-12.5h8.57v12.5h6.15v6.61H296.4v29.32h-8.57Z" transform="translate(-135.4 -352.01)"/><path d="M308.77,403.28h8.11V408c1.57-3.21,4.52-5.76,9.95-5.82v8.63h-.39c-6,0-9.1,2.82-9.1,9v19.37h-8.57Z" transform="translate(-135.4 -352.01)"/><path d="M333.37,390.78h8.57v7.65h-8.57Zm0,12.5h8.57v35.93h-8.57Z" transform="translate(-135.4 -352.01)"/><path d="M388.41,435c0,5.89-1.11,9.69-3.34,12.7-3.07,4.12-9.1,7.4-16.49,7.4-11.19,0-16.56-6.68-17.87-12.24h10a8.11,8.11,0,0,0,3.73,3.66,10.43,10.43,0,0,0,15.38-9.55v-3c-1.77,3.2-5.56,6.41-11.65,6.41-10.34,0-18.32-7.85-18.32-18.91,0-11.72,8.37-19.18,18.32-19.18,5.17,0,9.62,2.36,11.65,5.89v-4.84h8.64Zm-30-13.74c0,6.28,4.52,11.06,10.73,11.06a10.23,10.23,0,0,0,7.66-3.08,11,11,0,0,0,3.08-7.65,12.13,12.13,0,0,0-2.62-7.73,9.9,9.9,0,0,0-8.12-3.6,10.66,10.66,0,0,0-10.73,10.93Z" transform="translate(-135.4 -352.01)"/><path d="M404.37,424.09c.4,5.76,5.5,9,10.41,8.9a9.27,9.27,0,0,0,8.64-4.84h8.83a20.28,20.28,0,0,1-7.26,9,17.85,17.85,0,0,1-10.28,3.14,19.08,19.08,0,0,1-.13-38.15A18.34,18.34,0,0,1,428,407.66c4.38,4.52,6,10.15,5.3,16.43Zm20.49-6.54c-.33-3.41-3.93-8.19-10.21-8.12s-9.82,4.58-10.15,8.12Z" transform="translate(-135.4 -352.01)"/><path d="M441.08,403.28h8.12V408c1.57-3.21,4.51-5.76,9.95-5.82v8.63h-.4c-6,0-9.09,2.82-9.09,9v19.37h-8.58Z" transform="translate(-135.4 -352.01)"/><path d="M677.47,599.59h4.42v2.87a8.22,8.22,0,0,1,7-3.48c6.88,0,9.79,5.85,9.79,10.62,0,5.6-4,10.3-9.76,10.3a7.66,7.66,0,0,1-6.71-3.23v9.51h-4.7Zm16.47,9.83a5.94,5.94,0,0,0-6-6.06,5.86,5.86,0,0,0-4.27,1.79A6.24,6.24,0,0,0,682,609.5a6,6,0,1,0,12,0Z" transform="translate(-135.4 -352.01)"/><path d="M712.38,619.29h-4.6l-7.32-19.7h4.88l4.74,13.78,4.73-13.78h4.88Z" transform="translate(-135.4 -352.01)"/><path d="M723.82,603.22h-3.27v-3.63h3.27v-6.85h4.7v6.85h3.37v3.63h-3.37v16.07h-4.7Z" transform="translate(-135.4 -352.01)"/><path d="M745.41,592.74h4.7v26.55h-4.7Z" transform="translate(-135.4 -352.01)"/><path d="M756,603.22h-3.26v-3.63H756v-6.85h4.7v6.85h3.38v3.63h-3.38v16.07H756Z" transform="translate(-135.4 -352.01)"/><path d="M787,619.29H782.5v-2.83c-.86,1.47-2.73,3.44-6.75,3.44-6.06,0-10-4.74-10-10.48,0-6.38,4.56-10.44,9.9-10.44a7.65,7.65,0,0,1,6.6,3.16v-9.4H787Zm-16.5-9.87a5.87,5.87,0,0,0,6,6.07,6.15,6.15,0,0,0,4.37-1.8,6.23,6.23,0,0,0-.07-8.61,6,6,0,0,0-4.27-1.72,5.88,5.88,0,0,0-6.06,6Z" transform="translate(-135.4 -352.01)"/><path class="cls-10" d="M347.79,615.08c1.81,1.52,2.54,3,1,5.32a142.45,142.45,0,0,1-14.84,18.46c-2.26,2.39-3.22.47-4.54-.8-8.31-8.12-18.11-10.68-29.23-7.5a28.17,28.17,0,0,0-19.42,33.75c1.05,4.38-.12,5.66-4.23,6.39a179.34,179.34,0,0,1-22.62,2.77c-3.07.15-4.53-.19-4.49-4.17.2-22.39-23.52-36.12-44.13-24.43a25.92,25.92,0,0,0-9.69,10.33c-1.07,2.08-2.17,2.9-4.45,1.44a128.56,128.56,0,0,1-20.75-16.23c-1.82-1.79-1.73-2.68.09-4.55,10.13-10.39,12-23.83,5.09-35.64-6.64-11.43-19.59-16.57-33.25-12.89-2.52.68-2.94,0-3.5-2.11-2.21-8.59-3-17.33-3.41-26.14-.18-3.55,1.9-3.24,4.21-3.3,18.35-.5,31.23-15.43,28.5-33.46a26.83,26.83,0,0,0-14.43-20.44c-2.49-1.33-2.65-2.2-1.2-4.6a135.84,135.84,0,0,1,15.19-19.87c2.36-2.68,3.66-2.51,6.19-.05,13.55,13.22,34.71,10.66,44.76-5.3a27.47,27.47,0,0,0,3.19-22.79c-.82-2.92,0-3.85,2.78-4.48a160.17,160.17,0,0,1,21.67-3.1c2.9-.24,4.21.77,4.78,3.74,4.65,24.18-5.77,48.4-27,61.08-12.38,7.4-21.89,17.13-26.72,30.78-8.17,23.16-3.69,44.07,13.63,61.27,16.71,16.6,37.09,20.49,59.53,13.46,7.44-2.33,13.65-7.31,21.26-9.42C312.73,596.81,331.28,601.18,347.79,615.08Z" transform="translate(-135.4 -352.01)"/><path class="cls-10" d="M348.78,620.4a142.45,142.45,0,0,1-14.84,18.46c-2.26,2.39-3.22.47-4.54-.8-8.31-8.12-18.11-10.68-29.23-7.5a28.17,28.17,0,0,0-19.42,33.75c1.05,4.38-.12,5.66-4.23,6.39a179.34,179.34,0,0,1-22.62,2.77c-3.07.15-4.53-.19-4.49-4.17.2-22.39-23.52-36.12-44.13-24.43a25.92,25.92,0,0,0-9.69,10.33c-1.07,2.08-2.17,2.9-4.45,1.44a128.56,128.56,0,0,1-20.75-16.23c-1.82-1.79-1.73-2.68.09-4.55,10.13-10.39,12-23.83,5.09-35.64-6.64-11.43-19.59-16.57-33.25-12.89-2.52.68-2.94,0-3.5-2.11-2.21-8.59-3-17.33-3.41-26.14-.18-3.55,1.9-3.24,4.21-3.3,18.35-.5,31.23-15.43,28.5-33.46a26.83,26.83,0,0,0-14.43-20.44c-2.49-1.33-2.65-2.2-1.2-4.6a135.84,135.84,0,0,1,15.19-19.87c2.36-2.68,3.66-2.51,6.19-.05,13.55,13.22,34.71,10.66,44.76-5.3a27.47,27.47,0,0,0,3.19-22.79c-.82-2.92,0-3.85,2.78-4.48a160.17,160.17,0,0,1,21.67-3.1c2.9-.24,4.21.77,4.78,3.74,4.65,24.18-5.77,48.4-27,61.08-12.38,7.4-21.89,17.13-26.72,30.78-8.17,23.16-3.69,44.07,13.63,61.27,16.71,16.6,37.09,20.49,59.53,13.46,7.44-2.33,13.65-7.31,21.26-9.42,21-5.79,39.5-1.42,56,12.48C349.6,616.6,350.33,618.07,348.78,620.4Z" transform="translate(-135.4 -352.01)"/><circle class="cls-11" cx="694.52" cy="47.53" r="29.59"/><circle class="cls-12" cx="670.3" cy="92.36" r="12.55"/><circle class="cls-13" cx="691.6" cy="139.95" r="12.55"/><path class="cls-14" d="M888.46,488.5c-2.1-6-3.81-12.15-5.87-18.19a23.63,23.63,0,0,1,1.4-19.62c4.27-8.47,7.22-17.79,3-27.5-3.89-11.29-9.36-21.48-19.48-28.49-3.49,8-3.68,16.7-5.06,25.11-.63,3.91-1.89,6.22-5.64,7.53-8.17,2.86-16.18,6.23-24.41,8.91-3.77,1.23-6.21,2.84-5.88,7,1.1,14.82-8.87,19.12-20.55,22.28-5.1,1.37-6.78-2.64-9.71-4.78-1.59-1.15-2.92-3.45-5.08-2.57-1.91.8-.85,3.35-1.51,5-4.58,11.56-.24,19.41,10,25.14,2.49,1.4,4.37,3.89,6.86,5.18,2,1.05,2.24-.93,2.14-2.49-.17-2.52-.93-3.8.24-6.26,4-8.45,15.47-12.29,24.11-9.42,6,2,11.46,6.86,12,13.52s-1.5,15.79-7.69,19.51a29.78,29.78,0,0,1-5.94,2.47c-4.7,1.57-10,1.85-13.8-1.78-2.54-2.39-4.82-5.33-8.37-6.21.11,0-1.39,8.76-1.52,9.56q-.85,5.49-1.75,11c-.32,1.94-.4,3.91-.82,5.82a19.23,19.23,0,0,1-.75,3.38L803,535.72c-.3.17-.64,1.1-.82,1.41a5.07,5.07,0,0,0-.6,1.49,2.19,2.19,0,0,0,.25,1.55,2.71,2.71,0,0,0,1.12.88,3.32,3.32,0,0,0,.68.27c1.86.45,2.53-1.58,3.6-2.63,8-7.77,16.76-9.36,26.81-4.26,5.52,2.8,11.33,4.86,17.67,4.81,5.07,0,9.6-2.84,9.12-7.35s1.25-8.69,4-12.31c1.27-1.71,2.69-3.3,4-5a22.35,22.35,0,0,0,3.56-5.45c.21-.56.32-1.15.56-1.7.45-1,1.51-1.32,1.58-2.35s-.15-1.81-.1-2.72a7.4,7.4,0,0,1,1.18-3.89c1.81-2.52,5.39-2.68,8.2-2.51C888.27,496.28,890.11,493.19,888.46,488.5Z" transform="translate(-135.4 -352.01)"/><circle class="cls-15" cx="620.98" cy="106.71" r="29.59"/><circle class="cls-16" cx="642.51" cy="35.87" r="18.83"/><circle class="cls-17" cx="646.09" cy="170.38" r="18.83"/><circle class="cls-18" cx="594.98" cy="47.53" r="14.35"/><circle class="cls-19" cx="609.33" cy="14.35" r="8.07"/><circle class="cls-20" cx="661.34" cy="6.28" r="6.28"/></g></svg>